<svg width="83" height="127" viewBox="0 0 83 127" fill="none" xmlns="http://www.w3.org/2000/svg">
<path d="M52.3291 126.485L9.35332 126.457C8.12458 126.457 6.90795 126.214 5.77291 125.744C4.63786 125.273 3.60664 124.584 2.7381 123.714C1.86956 122.845 1.18073 121.813 0.710926 120.678C0.241122 119.543 -0.000451196 118.326 6.3264e-07 117.097L0.0206397 9.3602C0.0210914 8.13055 0.263735 6.91303 0.734719 5.77715C1.2057 4.64128 1.8958 3.60929 2.76562 2.74011C3.63543 1.87094 4.66793 1.1816 5.80415 0.711449C6.94037 0.241299 8.15807 -0.000451196 9.38772 6.32175e-07L52.36 0.0275212C54.8416 0.0293444 57.221 1.0162 58.9755 2.77128C60.7299 4.52636 61.7159 6.90612 61.7168 9.38772L61.6927 117.125C61.6927 118.354 61.4505 119.572 60.9799 120.707C60.5093 121.843 59.8195 122.875 58.9499 123.745C58.0804 124.614 57.0481 125.303 55.9121 125.773C54.7761 126.244 53.5586 126.485 52.3291 126.485Z" fill="#00131F"/>
<path d="M52.219 3.86953H43.8873C43.6154 3.87489 43.3472 3.93394 43.0981 4.0433C42.8491 4.15266 42.6241 4.31017 42.4361 4.50678C42.2482 4.70338 42.1009 4.9352 42.0028 5.18891C41.9047 5.44261 41.8578 5.71321 41.8646 5.98512V7.49528C41.871 7.76719 41.8236 8.03769 41.7251 8.29122C41.6266 8.54475 41.479 8.77632 41.2907 8.9726C41.1024 9.16888 40.8772 9.32601 40.6279 9.43496C40.3787 9.5439 40.1104 9.60252 39.8385 9.60743H23.5983C23.3263 9.60208 23.0581 9.54302 22.8091 9.43366C22.56 9.3243 22.3351 9.16679 22.1471 8.97018C21.9591 8.77358 21.8119 8.54176 21.7138 8.28805C21.6157 8.03435 21.5687 7.76376 21.5756 7.49184V5.97824C21.5843 5.70604 21.539 5.4348 21.4424 5.18016C21.3458 4.92552 21.1998 4.69252 21.0127 4.49458C20.8257 4.29664 20.6013 4.13769 20.3525 4.02687C20.1037 3.91605 19.8355 3.85556 19.5632 3.84889H16.6323H9.343C8.48139 3.84708 7.62788 4.01511 6.83125 4.34337C6.03463 4.67163 5.31051 5.15369 4.70031 5.76198C4.0901 6.37027 3.60577 7.09286 3.27501 7.88845C2.94424 8.68404 2.77353 9.53702 2.77262 10.3986L2.75199 115.559C2.74927 116.419 2.91632 117.271 3.24357 118.067C3.57082 118.862 4.05182 119.585 4.65901 120.194C5.2662 120.803 5.98764 121.286 6.78197 121.616C7.5763 121.946 8.4279 122.116 9.28796 122.116L52.1777 122.14C53.0387 122.14 53.8914 121.971 54.6871 121.642C55.4827 121.313 56.2058 120.83 56.8149 120.222C57.4241 119.613 57.9074 118.891 58.2374 118.095C58.5673 117.3 58.7373 116.448 58.7378 115.587L58.779 10.4261C58.779 9.56483 58.6093 8.71195 58.2796 7.91624C57.9499 7.12053 57.4666 6.39759 56.8574 5.7887C56.2482 5.17982 55.525 4.69694 54.7292 4.36764C53.9333 4.03834 53.0803 3.86908 52.219 3.86953Z" fill="white"/>
<path d="M59.2505 20.5794C59.2505 20.6276 46.5879 20.6689 30.9738 20.6689C15.3597 20.6689 2.7074 20.6173 2.7074 20.5794C2.7074 20.5416 15.3665 20.49 30.991 20.49C46.6154 20.49 59.2505 20.5278 59.2505 20.5794Z" fill="#263238"/>
<path d="M8.60684 16.6818C8.56525 16.6822 8.52493 16.6675 8.49333 16.6405L6.85933 15.206C6.83999 15.1904 6.82462 15.1704 6.81446 15.1477C6.8043 15.125 6.79963 15.1002 6.80085 15.0753C6.80057 15.0503 6.80601 15.0255 6.81674 15.0028C6.82747 14.9802 6.84321 14.9603 6.86277 14.9446L8.49676 13.5686C8.53198 13.5401 8.57703 13.5266 8.62212 13.5311C8.6672 13.5356 8.70869 13.5578 8.73756 13.5927C8.75212 13.6099 8.76306 13.6299 8.76975 13.6515C8.77643 13.673 8.77872 13.6957 8.77648 13.7182C8.77423 13.7406 8.7675 13.7624 8.75668 13.7822C8.74586 13.802 8.73117 13.8195 8.71349 13.8335L7.23773 15.065L8.71692 16.3653C8.73411 16.3798 8.74822 16.3976 8.75842 16.4177C8.76862 16.4377 8.7747 16.4596 8.7763 16.4821C8.7779 16.5045 8.775 16.5271 8.76775 16.5484C8.76051 16.5697 8.74908 16.5893 8.73412 16.6061C8.72026 16.6278 8.70154 16.6459 8.67944 16.659C8.65734 16.6722 8.63248 16.68 8.60684 16.6818Z" fill="#263238"/>
<path d="M44.2623 14.9818C44.2623 15.0334 38.9406 15.0712 32.3737 15.0712C25.8068 15.0712 20.4851 15.0334 20.4851 14.9818C20.4851 14.9302 25.8068 14.8923 32.3737 14.8923C38.9406 14.8923 44.2623 14.9336 44.2623 14.9818Z" fill="#263238"/>
<path d="M51.1492 14.9703C51.1492 15.0927 51.1128 15.2125 51.0448 15.3143C50.9768 15.4161 50.8801 15.4955 50.7669 15.5423C50.6538 15.5892 50.5293 15.6015 50.4092 15.5776C50.289 15.5537 50.1787 15.4947 50.0921 15.4081C50.0055 15.3215 49.9466 15.2112 49.9227 15.0911C49.8988 14.971 49.911 14.8465 49.9579 14.7333C50.0048 14.6202 50.0841 14.5235 50.186 14.4554C50.2878 14.3874 50.4075 14.3511 50.53 14.3511C50.6942 14.3511 50.8517 14.4163 50.9678 14.5324C51.0839 14.6486 51.1492 14.806 51.1492 14.9703Z" fill="#263238"/>
<path d="M52.931 14.9703C52.931 15.0929 52.8946 15.2127 52.8264 15.3146C52.7582 15.4165 52.6613 15.4959 52.548 15.5427C52.4346 15.5894 52.31 15.6015 52.1898 15.5773C52.0696 15.5531 51.9592 15.4938 51.8728 15.4069C51.7863 15.3199 51.7276 15.2093 51.7041 15.089C51.6806 14.9686 51.6934 14.844 51.7408 14.7309C51.7881 14.6178 51.868 14.5214 51.9703 14.4538C52.0726 14.3861 52.1926 14.3504 52.3153 14.3511C52.3964 14.3511 52.4768 14.3671 52.5517 14.3983C52.6266 14.4294 52.6947 14.4751 52.7519 14.5326C52.8091 14.5902 52.8544 14.6585 52.8851 14.7336C52.9159 14.8087 52.9315 14.8891 52.931 14.9703Z" fill="#263238"/>
<path d="M54.7163 14.9703C54.7163 15.0927 54.68 15.2125 54.612 15.3143C54.5439 15.4161 54.4472 15.4955 54.3341 15.5423C54.2209 15.5892 54.0964 15.6015 53.9763 15.5776C53.8562 15.5537 53.7459 15.4947 53.6593 15.4081C53.5727 15.3215 53.5137 15.2112 53.4898 15.0911C53.4659 14.971 53.4782 14.8465 53.525 14.7333C53.5719 14.6202 53.6513 14.5235 53.7531 14.4554C53.8549 14.3874 53.9746 14.3511 54.0971 14.3511C54.2613 14.3511 54.4188 14.4163 54.5349 14.5324C54.6511 14.6486 54.7163 14.806 54.7163 14.9703Z" fill="#263238"/>
<path d="M25.6073 43.6827C25.6073 44.0817 25.4421 44.3225 25.1669 44.3225C25.102 44.3288 25.037 44.3118 24.9835 44.2747C24.93 44.2375 24.8913 44.1825 24.8745 44.1196C24.8285 44.1863 24.766 44.2401 24.6931 44.2757C24.6201 44.3112 24.5393 44.3274 24.4583 44.3225C24.3105 44.3112 24.1724 44.2445 24.0717 44.1357C23.971 44.027 23.915 43.8842 23.915 43.736C23.915 43.5878 23.971 43.445 24.0717 43.3363C24.1724 43.2275 24.3105 43.1608 24.4583 43.1495C24.5309 43.1457 24.6033 43.1586 24.6701 43.1872C24.7369 43.2158 24.7963 43.2594 24.8436 43.3146V43.1632H25.0981V43.9476C25.0981 44.0645 25.1532 44.1058 25.2185 44.1058C25.3424 44.1058 25.4112 43.9579 25.4112 43.6861C25.4131 43.5723 25.391 43.4593 25.3464 43.3546C25.3018 43.2498 25.2357 43.1556 25.1523 43.0781C25.0689 43.0005 24.9702 42.9414 24.8625 42.9045C24.7548 42.8676 24.6405 42.8538 24.5271 42.864C24.4077 42.8533 24.2874 42.8676 24.1738 42.9059C24.0602 42.9443 23.9559 43.0059 23.8674 43.0868C23.7789 43.1677 23.7083 43.2661 23.66 43.3758C23.6116 43.4855 23.5867 43.6041 23.5867 43.724C23.5867 43.8438 23.6116 43.9624 23.66 44.0721C23.7083 44.1818 23.7789 44.2802 23.8674 44.3611C23.9559 44.442 24.0602 44.5036 24.1738 44.542C24.2874 44.5803 24.4077 44.5946 24.5271 44.5839C24.6821 44.5846 24.8352 44.5493 24.9743 44.4807L25.0362 44.6665C24.8766 44.7397 24.7026 44.7761 24.5271 44.7731C24.384 44.7813 24.2408 44.7602 24.1062 44.7111C23.9716 44.662 23.8484 44.5859 23.7442 44.4875C23.64 44.3891 23.557 44.2705 23.5003 44.1389C23.4436 44.0073 23.4143 43.8655 23.4143 43.7222C23.4143 43.5789 23.4436 43.4371 23.5003 43.3055C23.557 43.174 23.64 43.0553 23.7442 42.9569C23.8484 42.8585 23.9716 42.7825 24.1062 42.7333C24.2408 42.6842 24.384 42.6631 24.5271 42.6713C24.6658 42.6608 24.8052 42.6793 24.9364 42.7255C25.0676 42.7717 25.1878 42.8446 25.2894 42.9397C25.3909 43.0348 25.4716 43.1499 25.5263 43.2778C25.581 43.4057 25.6086 43.5436 25.6073 43.6827ZM24.847 43.7343C24.843 43.6673 24.8194 43.6029 24.7793 43.5491C24.7391 43.4953 24.6841 43.4545 24.621 43.4315C24.5579 43.4086 24.4894 43.4047 24.4241 43.4202C24.3588 43.4357 24.2995 43.47 24.2534 43.5189C24.2073 43.5677 24.1766 43.6289 24.1649 43.695C24.1532 43.7611 24.1611 43.8292 24.1876 43.8909C24.2142 43.9525 24.2582 44.0051 24.3142 44.0421C24.3703 44.079 24.4359 44.0988 24.503 44.0989C24.55 44.099 24.5965 44.0895 24.6396 44.0709C24.6827 44.0523 24.7216 44.0251 24.7539 43.991C24.7861 43.9568 24.811 43.9164 24.827 43.8723C24.843 43.8281 24.8498 43.7812 24.847 43.7343Z" fill="#263238"/>
<path d="M38.607 44.3067C38.607 44.3549 36.1165 44.3962 33.048 44.3962C29.9795 44.3962 27.4924 44.3549 27.4924 44.3067C27.4924 44.2586 29.9795 44.2139 33.048 44.2139C36.1165 44.2139 38.607 44.2551 38.607 44.3067Z" fill="#263238"/>
<path d="M16.6288 60.0274C16.122 60.1467 15.5944 60.1467 15.0876 60.0274C15.5944 59.9082 16.122 59.9082 16.6288 60.0274Z" fill="#263238"/>
<path d="M20.2511 63.7557C20.2511 63.8039 18.3935 63.8451 16.0991 63.8451C13.8046 63.8451 11.9504 63.8039 11.9504 63.7557C11.9504 63.7075 13.808 63.6663 16.0991 63.6663C18.3901 63.6663 20.2511 63.7075 20.2511 63.7557Z" fill="#263238"/>
<path d="M33.3231 60.0294C32.5399 60.1199 31.751 60.1498 30.9632 60.1188C30.1755 60.1498 29.3865 60.1199 28.6034 60.0294C29.3867 59.9408 30.1755 59.9109 30.9632 59.9399C31.751 59.9109 32.5398 59.9408 33.3231 60.0294Z" fill="#263238"/>
<path d="M34.7198 63.5565C34.7198 63.6046 32.8175 63.6459 30.4714 63.6459C28.1254 63.6459 26.2196 63.6046 26.2196 63.5565C26.2196 63.5083 28.1219 63.467 30.4714 63.467C32.8209 63.467 34.7198 63.5083 34.7198 63.5565Z" fill="#263238"/>
<path d="M48.7342 60.0796C47.676 60.1682 46.6137 60.1981 45.5522 60.169C44.4907 60.1981 43.4284 60.1682 42.3702 60.0796C43.4283 59.9889 44.4907 59.9591 45.5522 59.9902C46.6137 59.9591 47.6761 59.9889 48.7342 60.0796Z" fill="#263238"/>
<path d="M49.9245 63.7042C49.9245 63.7558 48.091 63.7936 45.8275 63.7936C43.564 63.7936 41.7271 63.7558 41.7271 63.7042C41.7271 63.6526 43.5606 63.6147 45.8275 63.6147C48.0945 63.6147 49.9245 63.656 49.9245 63.7042Z" fill="#263238"/>
<path d="M38.0394 67.2332H14.7231C14.2387 67.2332 13.8459 67.6259 13.8459 68.1104V73.5627C13.8459 74.0472 14.2387 74.4399 14.7231 74.4399H38.0394C38.5238 74.4399 38.9166 74.0472 38.9166 73.5627V68.1104C38.9166 67.6259 38.5238 67.2332 38.0394 67.2332Z" fill="#C88000"/>
<path d="M34.1763 70.9591C34.1763 71.0072 30.9496 71.0485 26.9696 71.0485C22.9895 71.0485 19.7456 71.0072 19.7456 70.9591C19.7456 70.9109 22.9723 70.8696 26.9696 70.8696C30.9668 70.8696 34.1763 70.9075 34.1763 70.9591Z" fill="white"/>
<path d="M47.3377 67.1013H41.8062C41.356 67.1013 40.991 67.4663 40.991 67.9166V73.6717C40.991 74.122 41.356 74.487 41.8062 74.487H47.3377C47.788 74.487 48.153 74.122 48.153 73.6717V67.9166C48.153 67.4663 47.788 67.1013 47.3377 67.1013Z" fill="#EBEBEB"/>
<path d="M43.7977 70.4158H45.3423L44.6371 71.4994L43.7977 70.4158Z" fill="#263238"/>
<path d="M38.9166 79.7996C38.9166 79.8512 34.9296 79.8891 30.0139 79.8891C25.0982 79.8891 21.1112 79.8512 21.1112 79.7996C21.1112 79.748 25.0982 79.7102 30.0139 79.7102C34.9296 79.7102 38.9166 79.7515 38.9166 79.7996Z" fill="#E0E0E0"/>
<path d="M44.0971 83.1541C44.0971 83.2023 38.2492 83.2436 31.0252 83.2436C23.8012 83.2436 17.9532 83.2023 17.9532 83.1541C17.9532 83.106 23.8012 83.0647 31.0252 83.0647C38.2492 83.0647 44.0971 83.106 44.0971 83.1541Z" fill="#E0E0E0"/>
<path d="M59.1231 88.9688C59.1231 89.0204 46.5843 89.0617 31.1147 89.0617C15.6451 89.0617 3.10632 89.0204 3.10632 88.9688C3.10632 88.9172 15.6451 88.8794 31.1147 88.8794C46.5843 88.8794 59.1231 88.9207 59.1231 88.9688Z" fill="#263238"/>
<path d="M31.672 95.4922C31.5834 94.4375 31.5535 93.3786 31.5825 92.3206C31.5535 91.2637 31.5833 90.2059 31.672 89.1523C31.7626 90.2058 31.7925 91.2637 31.7614 92.3206C31.7924 93.3786 31.7626 94.4376 31.672 95.4922Z" fill="#263238"/>
<path d="M28.1941 49.002L26.5842 52.6965H25.8962L24.2828 49.002H25.0259L26.2539 51.8503L27.4958 49.002H28.1941Z" fill="#C88000"/>
<path d="M30.9495 51.5002H28.7376C28.7784 51.7076 28.8944 51.8926 29.0633 52.0196C29.2322 52.1466 29.4421 52.2066 29.6526 52.1882C29.7943 52.194 29.9356 52.1697 30.0673 52.1169C30.1989 52.0642 30.3178 51.9841 30.4163 51.8821L30.7603 52.288C30.6165 52.4433 30.4402 52.5648 30.244 52.6439C30.0477 52.723 29.8364 52.7577 29.6251 52.7455C28.6826 52.7455 28.0702 52.1401 28.0702 51.3007C28.0633 51.1071 28.0967 50.9141 28.1684 50.734C28.2401 50.554 28.3484 50.3908 28.4866 50.2549C28.6248 50.119 28.7897 50.0134 28.9709 49.9447C29.1521 49.876 29.3456 49.8458 29.5391 49.8559C29.7307 49.8489 29.9216 49.882 30.0996 49.953C30.2777 50.0241 30.4389 50.1315 30.573 50.2685C30.7071 50.4055 30.811 50.569 30.8783 50.7486C30.9455 50.9281 30.9744 51.1197 30.9633 51.311C30.9598 51.3558 30.9529 51.4349 30.9495 51.5002ZM28.7342 51.0599H30.3303C30.3111 50.8653 30.218 50.6855 30.0702 50.5575C29.9223 50.4295 29.731 50.363 29.5357 50.3719C29.34 50.3646 29.1487 50.4313 29.0001 50.5589C28.8515 50.6864 28.7565 50.8654 28.7342 51.0599Z" fill="#C88000"/>
<path d="M33.2234 49.856V50.4821C33.1735 50.4718 33.1229 50.4661 33.072 50.4649C32.9577 50.4561 32.8429 50.473 32.7361 50.5144C32.6292 50.5558 32.5329 50.6206 32.4544 50.7041C32.3759 50.7876 32.317 50.8876 32.2822 50.9969C32.2474 51.1061 32.2375 51.2217 32.2533 51.3352V52.7112H31.6031V49.8939H32.2327V50.3032C32.3457 50.1501 32.4961 50.0285 32.6696 49.9502C32.8431 49.8719 33.0338 49.8395 33.2234 49.856Z" fill="#C88000"/>
<path d="M33.6947 49.0187C33.6951 48.9645 33.7065 48.9109 33.7282 48.8613C33.75 48.8116 33.7816 48.7669 33.8212 48.7299C33.8608 48.6929 33.9075 48.6643 33.9585 48.6459C34.0095 48.6276 34.0637 48.6198 34.1178 48.6231C34.1706 48.6188 34.2236 48.6254 34.2737 48.6424C34.3238 48.6594 34.3699 48.6864 34.4092 48.7219C34.4485 48.7573 34.4801 48.8003 34.5022 48.8484C34.5242 48.8965 34.5363 48.9486 34.5375 49.0015C34.528 49.1067 34.4795 49.2045 34.4015 49.2757C34.3235 49.347 34.2217 49.3865 34.1161 49.3865C34.0105 49.3865 33.9087 49.347 33.8307 49.2757C33.7527 49.2045 33.7042 49.1067 33.6947 49.0015V49.0187ZM33.7841 49.8787H34.4446V52.696H33.7841V49.8787Z" fill="#C88000"/>
<path d="M36.419 48.7435C36.6295 48.7342 36.8379 48.7881 37.0175 48.8983L36.8318 49.3936C36.7248 49.3187 36.5977 49.278 36.4671 49.2767C36.1919 49.2767 36.0509 49.428 36.0509 49.7307V49.8993H36.8283V50.4256H36.075V52.696H35.387V50.4256H34.926V49.8993H35.387V49.7204C35.376 49.5845 35.3955 49.4479 35.4443 49.3205C35.4931 49.1932 35.5699 49.0784 35.6689 48.9847C35.7679 48.8909 35.8867 48.8206 36.0165 48.7788C36.1463 48.7371 36.2839 48.725 36.419 48.7435ZM37.6023 49.0187C37.6027 48.9645 37.6141 48.9109 37.6359 48.8613C37.6576 48.8116 37.6892 48.7669 37.7288 48.7299C37.7684 48.6929 37.8152 48.6643 37.8661 48.6459C37.9171 48.6276 37.9714 48.6198 38.0255 48.6231C38.0782 48.6188 38.1312 48.6254 38.1813 48.6424C38.2314 48.6594 38.2775 48.6864 38.3168 48.7219C38.3561 48.7573 38.3878 48.8003 38.4098 48.8484C38.4319 48.8965 38.4439 48.9486 38.4451 49.0015C38.4356 49.1067 38.3871 49.2045 38.3091 49.2757C38.2312 49.347 38.1294 49.3865 38.0237 49.3865C37.9181 49.3865 37.8163 49.347 37.7383 49.2757C37.6604 49.2045 37.6118 49.1067 37.6023 49.0015V49.0187ZM37.6918 49.8787H38.3522V52.696H37.6918V49.8787Z" fill="#C88000"/>
<path d="M41.8405 51.4994H39.632C39.672 51.7065 39.7874 51.8914 39.9557 52.0184C40.1241 52.1455 40.3335 52.2057 40.5436 52.1874C40.6857 52.1919 40.8271 52.1671 40.9591 52.1144C41.0911 52.0617 41.2108 51.9823 41.3107 51.8812L41.6547 52.2871C41.5113 52.4428 41.335 52.5646 41.1386 52.6437C40.9423 52.7228 40.7308 52.7573 40.5195 52.7446C39.577 52.7446 38.9647 52.1392 38.9647 51.2999C38.9593 51.1081 38.9934 50.9173 39.0649 50.7393C39.1364 50.5613 39.2437 50.3999 39.3801 50.265C39.5165 50.1302 39.6792 50.0249 39.8581 49.9555C40.0369 49.8862 40.2281 49.8543 40.4198 49.8619C40.6113 49.8549 40.8023 49.888 40.9803 49.959C41.1583 50.0301 41.3196 50.1376 41.4536 50.2746C41.5877 50.4115 41.6917 50.5751 41.7589 50.7546C41.8261 50.9341 41.8551 51.1257 41.8439 51.3171C41.8508 51.3549 41.8474 51.434 41.8405 51.4994ZM39.6251 51.0591H41.235C41.215 50.8642 41.1212 50.6843 40.9728 50.5564C40.8244 50.4284 40.6327 50.3621 40.437 50.3711C40.2397 50.3619 40.0463 50.4277 39.8957 50.5554C39.7451 50.683 39.6484 50.863 39.6251 51.0591Z" fill="#C88000"/>
<path d="M45.246 48.783V52.6977H44.6131V52.333C44.4978 52.4654 44.354 52.5701 44.1926 52.6392C44.0312 52.7083 43.8563 52.74 43.6808 52.7321C43.2986 52.7321 42.932 52.5802 42.6617 52.3099C42.3914 52.0396 42.2395 51.673 42.2395 51.2907C42.2395 50.9084 42.3914 50.5418 42.6617 50.2715C42.932 50.0012 43.2986 49.8494 43.6808 49.8494C43.8502 49.8418 44.0192 49.8718 44.1756 49.9372C44.332 50.0026 44.472 50.1018 44.5856 50.2278V48.783H45.246ZM44.5959 51.2873C44.5878 51.1233 44.5318 50.9652 44.4348 50.8327C44.3378 50.7002 44.2041 50.5991 44.0502 50.5418C43.8963 50.4846 43.7289 50.4738 43.5689 50.5107C43.4089 50.5476 43.2633 50.6306 43.15 50.7494C43.0367 50.8683 42.9607 51.0178 42.9316 51.1794C42.9024 51.341 42.9212 51.5076 42.9858 51.6586C43.0504 51.8095 43.1578 51.9383 43.2948 52.0288C43.4318 52.1193 43.5923 52.1677 43.7565 52.1679C43.8709 52.1701 43.9845 52.1484 44.09 52.1044C44.1956 52.0604 44.2908 51.9949 44.3698 51.9121C44.4487 51.8293 44.5095 51.731 44.5485 51.6234C44.5874 51.5159 44.6035 51.4014 44.5959 51.2873Z" fill="#C88000"/>
<path d="M19.085 53.623C20.6828 53.623 21.9781 52.3277 21.9781 50.7299C21.9781 49.1322 20.6828 47.8369 19.085 47.8369C17.4873 47.8369 16.192 49.1322 16.192 50.7299C16.192 52.3277 17.4873 53.623 19.085 53.623Z" fill="#C88000"/>
<path d="M17.7778 50.7836L18.1494 50.4121L18.8683 51.0485L20.2753 49.6931L20.6193 50.0646L18.8133 51.764L17.7778 50.7836Z" fill="white"/>
<path d="M31.5207 122.125H8.81682C7.19282 122.119 5.63735 121.47 4.49191 120.318C3.34647 119.167 2.70466 117.608 2.70741 115.984V95.4924H31.5379L31.5207 122.125Z" fill="#EBEBEB"/>
<path d="M52.4598 122.18L31.2592 122.125V95.4924H58.841V115.812C58.8057 117.492 58.1217 119.094 56.9322 120.281C55.7426 121.468 54.1399 122.148 52.4598 122.18Z" fill="#455A64"/>
<path d="M59.123 95.4925C59.123 95.5407 46.5843 95.582 31.1181 95.582C15.6519 95.582 3.10974 95.5407 3.10974 95.4925C3.10974 95.4444 15.6451 95.4031 31.1181 95.4031C46.5912 95.4031 59.123 95.4444 59.123 95.4925Z" fill="#263238"/>
<path d="M30.6985 111.089C30.6985 111.089 30.6675 111.089 30.6194 111.041L30.4027 110.883L29.584 110.27L26.5912 107.986C25.9616 107.508 25.2668 106.954 24.5272 106.414C24.3297 106.3 24.1039 106.243 23.8757 106.251C23.6476 106.259 23.4262 106.331 23.2372 106.459C23.0465 106.617 22.8672 106.788 22.7005 106.972L22.1536 107.525L17.3376 112.39L17.0418 112.689L16.9867 112.744L16.9248 112.699L14.1453 110.635L12.8243 109.648C12.644 109.477 12.4167 109.364 12.1715 109.323C11.9264 109.281 11.6746 109.314 11.4483 109.417C11.2361 109.54 11.0436 109.695 10.8773 109.875L10.3338 110.381L9.30179 111.344L7.4442 113.064L4.75069 115.547L4.01109 116.215L3.81845 116.387C3.77488 116.426 3.7508 116.443 3.74622 116.438C3.76284 116.414 3.78249 116.392 3.80469 116.373L3.98701 116.191L4.70253 115.503L7.3582 112.978L9.20203 111.237L10.234 110.27L10.7741 109.761L11.0493 109.503C11.1522 109.41 11.268 109.333 11.3933 109.273C11.6443 109.151 11.9266 109.111 12.2017 109.156C12.3409 109.177 12.4757 109.222 12.6007 109.287C12.7228 109.352 12.8381 109.429 12.9447 109.517L14.2691 110.498L17.0521 112.562H16.9351L17.231 112.259L22.0469 107.405L22.5973 106.855C22.7708 106.664 22.9582 106.487 23.1581 106.325C23.3725 106.183 23.6225 106.103 23.8797 106.096C24.1369 106.089 24.391 106.154 24.6132 106.284C25.3768 106.851 26.0442 107.395 26.6772 107.883L29.6355 110.212L30.4371 110.852L30.64 111.024C30.6622 111.043 30.6819 111.065 30.6985 111.089Z" fill="#263238"/>
<path d="M19.4462 102.144C19.4255 102.144 19.4462 101.924 19.3327 101.542C19.1845 101.008 18.8625 100.538 18.4176 100.207C18.1134 99.9801 17.7598 99.828 17.3856 99.7635C16.9602 99.6879 16.5223 99.7259 16.1163 99.8736C15.6667 100.038 15.2762 100.333 14.9948 100.72C14.6911 101.133 14.5273 101.633 14.5273 102.146C14.5273 102.659 14.6911 103.158 14.9948 103.572C15.2647 103.938 15.6316 104.221 16.054 104.39C16.4764 104.559 16.9376 104.607 17.3856 104.528C17.7604 104.463 18.1142 104.31 18.4176 104.081C18.8625 103.75 19.1845 103.28 19.3327 102.746C19.4359 102.368 19.4255 102.144 19.4462 102.144C19.4514 102.198 19.4514 102.252 19.4462 102.306C19.4465 102.46 19.4292 102.613 19.3946 102.763C19.2667 103.326 18.9468 103.827 18.4899 104.18C18.1749 104.427 17.8059 104.596 17.4132 104.672C16.9359 104.765 16.4422 104.72 15.9892 104.544C15.5363 104.367 15.1426 104.066 14.8538 103.675C14.5257 103.233 14.3485 102.696 14.3485 102.146C14.3485 101.595 14.5257 101.059 14.8538 100.617C15.1566 100.204 15.5759 99.8913 16.0578 99.7188C16.4924 99.5649 16.9602 99.5292 17.4132 99.6156C17.8054 99.6935 18.1741 99.862 18.4899 100.108C18.9462 100.461 19.2659 100.962 19.3946 101.525C19.4293 101.676 19.4466 101.831 19.4462 101.986C19.4514 102.038 19.4514 102.091 19.4462 102.144Z" fill="#263238"/>
<path d="M57.9877 110.234C57.9877 110.234 57.9602 110.234 57.912 110.186L57.7056 110.031L56.9144 109.415L54.0283 107.128C53.4228 106.649 52.7555 106.096 52.0434 105.555C51.853 105.441 51.6327 105.386 51.4108 105.398C51.1889 105.409 50.9755 105.487 50.7981 105.621C50.6171 105.781 50.4459 105.952 50.2856 106.133L49.7627 106.687L45.1566 111.534L44.8676 111.833L44.8126 111.892L44.7472 111.844L42.0675 109.78L40.7947 108.792C40.6233 108.62 40.4018 108.507 40.162 108.469C39.9222 108.43 39.6764 108.469 39.4599 108.579C39.2582 108.708 39.0742 108.863 38.913 109.04L38.3935 109.546L37.3994 110.506L35.614 112.226L33.0306 114.702L32.322 115.37L32.1328 115.538C32.0915 115.576 32.0674 115.597 32.064 115.593C32.0806 115.569 32.1002 115.547 32.1224 115.528C32.1672 115.476 32.2256 115.418 32.2944 115.346L32.9824 114.658L35.528 112.14L37.2962 110.402C37.6161 110.093 37.9429 109.769 38.2835 109.436L38.7995 108.93L39.0643 108.672C39.1585 108.58 39.265 108.501 39.3808 108.438C39.6233 108.31 39.9007 108.263 40.172 108.304C40.309 108.324 40.4416 108.367 40.5642 108.431C40.6857 108.497 40.8009 108.574 40.9082 108.662L42.181 109.646L44.8642 111.71H44.7438L45.0327 111.407L49.6492 106.57L50.1755 106.02C50.3431 105.832 50.5223 105.655 50.7121 105.49C50.9154 105.34 51.1586 105.254 51.4109 105.242C51.6631 105.231 51.9132 105.294 52.1294 105.425C52.869 105.992 53.5054 106.536 54.1177 107.024L56.966 109.357L57.7331 110L57.9292 110.168L57.9877 110.234Z" fill="#263238"/>
<path d="M46.2918 101.377C46.2746 101.377 46.2918 101.156 46.1818 100.778C46.0353 100.243 45.713 99.7729 45.2667 99.4433C45.0095 99.2512 44.7168 99.1119 44.4054 99.0334C44.0941 98.955 43.7703 98.939 43.4527 98.9863C43.1351 99.0336 42.8301 99.1434 42.5551 99.3092C42.2802 99.475 42.0408 99.6937 41.8508 99.9525C41.5471 100.366 41.3833 100.865 41.3833 101.378C41.3833 101.891 41.5471 102.391 41.8508 102.804C42.1318 103.191 42.5225 103.485 42.9722 103.647C43.3527 103.788 43.7625 103.83 44.1636 103.77C44.5648 103.709 44.9442 103.549 45.2667 103.303C45.7124 102.973 46.0345 102.503 46.1818 101.968C46.2289 101.77 46.2657 101.569 46.2918 101.366C46.3008 101.42 46.3008 101.474 46.2918 101.528C46.2922 101.682 46.2749 101.835 46.2402 101.986C46.122 102.55 45.812 103.055 45.363 103.417C45.047 103.661 44.6784 103.828 44.2863 103.905C43.8336 103.995 43.3649 103.959 42.931 103.802C42.4493 103.631 42.03 103.319 41.727 102.907C41.3988 102.465 41.2217 101.929 41.2217 101.378C41.2217 100.828 41.3988 100.292 41.727 99.8493C42.0158 99.4582 42.4094 99.1569 42.8624 98.9804C43.3153 98.8038 43.809 98.7592 44.2863 98.8517C44.6784 98.9285 45.047 99.0957 45.363 99.3402C45.8202 99.6945 46.1401 100.197 46.2678 100.761C46.3024 100.911 46.3197 101.064 46.3194 101.218C46.3196 101.272 46.3103 101.326 46.2918 101.377Z" fill="#263238"/>
<path d="M31.6823 41.4247C36.0824 41.4247 39.6494 37.8578 39.6494 33.4577C39.6494 29.0577 36.0824 25.4907 31.6823 25.4907C27.2823 25.4907 23.7153 29.0577 23.7153 33.4577C23.7153 37.8578 27.2823 41.4247 31.6823 41.4247Z" fill="#F5F5F5"/>
<path d="M36.8319 39.5026C36.696 38.2388 36.09 37.0723 35.1342 36.2344C34.1784 35.3965 32.9426 34.9484 31.6719 34.979C28.8443 34.979 26.9076 37.1187 26.512 39.5198C26.512 39.5198 28.2595 41.4531 31.6719 41.4255C35.0844 41.398 36.8319 39.5026 36.8319 39.5026Z" fill="#E0E0E0"/>
<path d="M34.9238 32.679C35.1998 30.9712 34.0391 29.363 32.3313 29.0869C30.6235 28.8109 29.0153 29.9716 28.7393 31.6795C28.4633 33.3873 29.624 34.9955 31.3318 35.2715C33.0396 35.5475 34.6478 34.3868 34.9238 32.679Z" fill="#E0E0E0"/>
<path d="M36.794 39.2284C36.6965 38.7188 36.5335 38.2239 36.309 37.7561C36.0193 37.2329 35.637 36.7667 35.1807 36.3801C34.5815 35.8741 33.8916 35.4865 33.1477 35.238L32.9825 35.1864L33.1339 35.1073C33.659 34.8219 34.0903 34.3906 34.3757 33.8655C34.6241 33.4027 34.7483 32.8834 34.7361 32.3584C34.7239 31.8333 34.5758 31.3203 34.3062 30.8696C34.0365 30.4188 33.6547 30.0457 33.1978 29.7866C32.7409 29.5276 32.2247 29.3914 31.6994 29.3914C31.1742 29.3914 30.658 29.5276 30.2011 29.7866C29.7442 30.0457 29.3623 30.4188 29.0927 30.8696C28.8231 31.3203 28.6749 31.8333 28.6627 32.3584C28.6505 32.8834 28.7747 33.4027 29.0231 33.8655C29.1677 34.1338 29.3509 34.3795 29.5666 34.5948C29.7758 34.7961 30.0065 34.9738 30.2546 35.1245L30.3922 35.2105L30.234 35.2552C29.4725 35.4557 28.7727 35.8423 28.1975 36.3801C27.761 36.7936 27.4001 37.2802 27.1311 37.818C26.9577 38.1629 26.8171 38.5234 26.7114 38.8947C26.6736 39.022 26.6495 39.1218 26.6323 39.1871C26.6278 39.2215 26.6185 39.2551 26.6048 39.2869C26.5987 39.2528 26.5987 39.2178 26.6048 39.1837C26.6048 39.1149 26.6323 39.0117 26.6633 38.8844C26.7535 38.5047 26.8838 38.1357 27.052 37.7836C27.3129 37.2275 27.6718 36.723 28.1115 36.2941C28.6909 35.7356 29.4002 35.33 30.1755 35.1142L30.1549 35.2449C29.8952 35.0916 29.653 34.9105 29.4325 34.7048C29.2035 34.4799 29.0088 34.2226 28.8546 33.9412C28.5143 33.3064 28.3971 32.5758 28.5219 31.8665C28.6467 31.1572 29.0061 30.5104 29.5426 30.0299C30.1302 29.5005 30.893 29.2075 31.6839 29.2075C32.4749 29.2075 33.2377 29.5005 33.8253 30.0299C34.2091 30.3747 34.5037 30.8072 34.6841 31.2905C34.8646 31.7738 34.9255 32.2936 34.8616 32.8055C34.7977 33.3174 34.611 33.8063 34.3174 34.2305C34.0237 34.6546 33.6319 35.0015 33.1752 35.2415V35.1073C33.9344 35.3669 34.6355 35.7724 35.2392 36.301C35.7012 36.704 36.0828 37.1907 36.364 37.7355C36.4623 37.9372 36.544 38.1466 36.6083 38.3615C36.6618 38.5173 36.702 38.6772 36.7287 38.8397C36.7459 38.9601 36.7596 39.0599 36.77 39.1424C36.7803 39.225 36.8009 39.2284 36.794 39.2284Z" fill="#263238"/>
<path d="M39.6493 33.4567C39.6385 33.4139 39.6327 33.37 39.6321 33.326C39.6321 33.2331 39.6321 33.1092 39.6046 32.951L39.5874 32.6724C39.5874 32.5692 39.553 32.4591 39.5323 32.3284C39.4966 32.0505 39.4403 31.7757 39.3638 31.5062C39.177 30.7639 38.8789 30.0541 38.4797 29.4009C37.5348 27.824 36.0703 26.6253 34.3378 26.0107C32.6052 25.3962 30.7127 25.4041 28.9853 26.0332C28.6313 26.1607 28.2865 26.3124 27.9533 26.4873C27.6168 26.6716 27.2937 26.8797 26.9867 27.1099C26.6721 27.3433 26.3733 27.5972 26.0923 27.8701C25.8144 28.1577 25.5558 28.4634 25.3183 28.7852C24.8295 29.4438 24.4497 30.1767 24.1934 30.9558C23.6522 32.5709 23.6522 34.3184 24.1934 35.9335C24.4497 36.7137 24.8294 37.4477 25.3183 38.1075C25.5567 38.4286 25.8152 38.7342 26.0923 39.0226C26.3733 39.2955 26.6721 39.5494 26.9867 39.7828C27.2946 40.0118 27.6175 40.2199 27.9533 40.4054C29.5361 41.2399 31.3521 41.5219 33.1133 41.207C34.2192 41.0035 35.2695 40.5682 36.195 39.9296C37.1205 39.2911 37.9004 38.4637 38.4831 37.5021C38.8829 36.848 39.181 36.137 39.3672 35.3934C39.4437 35.1251 39.5 34.8514 39.5358 34.5747C39.5564 34.4543 39.577 34.3442 39.5908 34.2307L39.608 33.952C39.608 33.7938 39.6286 33.67 39.6355 33.5736C39.6363 33.5307 39.6421 33.488 39.6527 33.4464C39.6573 33.4898 39.6573 33.5336 39.6527 33.5771C39.6527 33.67 39.6527 33.7972 39.6527 33.9555C39.6527 34.0415 39.6527 34.1344 39.6527 34.2341C39.6527 34.3339 39.6218 34.4508 39.608 34.5781C39.5773 34.8579 39.5255 35.1351 39.4532 35.4071C39.2746 36.1614 38.9823 36.884 38.5863 37.5503C38.0066 38.5315 37.2251 39.3785 36.2934 40.035C35.3617 40.6915 34.3012 41.1425 33.1821 41.3583C31.7663 41.6233 30.3053 41.5045 28.9509 41.0143C28.5901 40.8844 28.2385 40.7304 27.8983 40.5534C27.5538 40.3656 27.2227 40.1541 26.9076 39.9204C26.5853 39.6823 26.2795 39.4226 25.9925 39.143C25.7079 38.8506 25.4436 38.5391 25.2013 38.2107C24.6989 37.537 24.3086 36.7866 24.0455 35.9885C23.7817 35.1664 23.6415 34.3097 23.6293 33.4464C23.6404 32.5816 23.7818 31.7234 24.0489 30.9008C24.3102 30.1036 24.6994 29.3542 25.2013 28.682C25.4436 28.3525 25.7079 28.0399 25.9925 27.7463C26.2812 27.4696 26.5868 27.2111 26.9076 26.9723C27.2227 26.7386 27.5538 26.5271 27.8983 26.3393C28.2385 26.1623 28.5901 26.0083 28.9509 25.8784C30.3042 25.3883 31.764 25.2695 33.1787 25.5344C34.2985 25.7495 35.3597 26.2003 36.2921 26.8568C37.2244 27.5134 38.0064 28.3606 38.5863 29.3425C38.9822 30.0075 39.2746 30.729 39.4532 31.4821C39.5256 31.7554 39.5773 32.0336 39.608 32.3146C39.608 32.435 39.6424 32.5485 39.6527 32.6586C39.663 32.7687 39.6527 32.8547 39.6527 32.9407C39.6527 33.0989 39.6527 33.2262 39.6527 33.3191C39.6566 33.3649 39.6555 33.4111 39.6493 33.4567Z" fill="#263238"/>
<path d="M62.3132 31.2555L63.3246 27.6057C61.9857 25.4365 61.5068 22.8448 61.9819 20.3403C62.4571 17.8358 63.8519 15.5997 65.8922 14.0715C67.9325 12.5433 70.4707 11.8337 73.0078 12.0821C75.5448 12.3305 77.8971 13.5189 79.6023 15.4138C81.3075 17.3087 82.2421 19.773 82.2225 22.3221C82.2028 24.8711 81.2303 27.3207 79.4961 29.1891C77.7619 31.0574 75.3916 32.2095 72.851 32.4188C70.3104 32.628 67.7835 31.8793 65.767 30.3199L62.3132 31.2555Z" fill="white"/>
<path d="M62.3133 31.2559L62.5437 31.1871L63.2077 31.0013L65.7601 30.2858L65.736 30.3512C65.7293 30.3436 65.7255 30.3338 65.7255 30.3237C65.7255 30.3135 65.7293 30.3037 65.736 30.2961C65.7438 30.2912 65.7527 30.2886 65.7618 30.2886C65.771 30.2886 65.7799 30.2912 65.7876 30.2961C67.1435 31.3368 68.7415 32.0162 70.4316 32.2707C71.5135 32.4369 72.6154 32.423 73.6927 32.2294C75.6992 31.881 77.5541 30.9362 79.0157 29.5181C80.4774 28.1001 81.4778 26.2746 81.8868 24.2796C82.1849 22.7559 82.1331 21.1845 81.7354 19.6838C81.3278 18.1164 80.5457 16.6715 79.4563 15.4731C78.367 14.2747 77.003 13.3587 75.4815 12.8038C73.9189 12.2301 72.2388 12.0509 70.5903 12.282C68.9417 12.5131 67.3757 13.1474 66.031 14.1287C64.6863 15.11 63.6046 16.4079 62.8817 17.9074C62.1587 19.4068 61.817 21.0615 61.8867 22.7247C61.9587 24.4391 62.4653 26.1069 63.359 27.5717C63.3625 27.5829 63.3625 27.5949 63.359 27.6061C63.015 28.7791 62.7639 29.6701 62.585 30.2996C62.499 30.6057 62.4302 30.8362 62.3821 30.9876C62.3339 31.1389 62.3098 31.2318 62.3098 31.2318C62.3098 31.2318 62.327 31.1561 62.3649 31.0013C62.4027 30.8465 62.4681 30.6092 62.5506 30.3133C62.7157 29.6838 62.9634 28.7653 63.2799 27.5613V27.5957C62.1975 25.8556 61.6655 23.8293 61.7532 21.7819C61.841 19.7344 62.5445 17.7611 63.7718 16.1199C65.3457 14.0185 67.6636 12.5984 70.2506 12.1507C72.8377 11.703 75.498 12.2616 77.6866 13.712C78.3685 14.1744 78.9942 14.7146 79.551 15.3219C80.1121 15.9367 80.6004 16.6143 81.0061 17.3411C82.1406 19.4693 82.5051 21.9239 82.0381 24.2899C81.6231 26.3153 80.6053 28.1679 79.1184 29.6045C77.6315 31.041 75.745 31.9944 73.7065 32.3395C72.6137 32.5325 71.4965 32.5418 70.4007 32.367C68.6937 32.0941 67.0839 31.3922 65.7223 30.3271L65.7808 30.2721C65.7845 30.2756 65.7875 30.2799 65.7895 30.2846C65.7916 30.2893 65.7926 30.2944 65.7926 30.2996C65.7926 30.3047 65.7916 30.3098 65.7895 30.3146C65.7875 30.3193 65.7845 30.3236 65.7808 30.3271L63.1836 31.0151L62.5197 31.194L62.3133 31.2559Z" fill="#263238"/>
<path d="M67.4423 22.5206L68.6325 21.327L70.9304 23.3703L75.4402 19.0291L76.5479 20.2227L70.7618 25.6682L67.4423 22.5206Z" fill="#FF725E"/>
</svg>
